<?xml version="1.0" standalone="no"?>
<!DOCTYPE svg PUBLIC "-//W3C//DTD SVG 20010904//EN"
 "http://www.w3.org/TR/2001/REC-SVG-20010904/DTD/svg10.dtd">
<svg version="1.0" xmlns="http://www.w3.org/2000/svg"
 width="412.000000pt" height="412.000000pt" viewBox="0 0 412.000000 412.000000"
 preserveAspectRatio="xMidYMid meet">
<metadata>
Created by potrace 1.11, written by Peter Selinger 2001-2013
</metadata>
<g transform="translate(0.000000,412.000000) scale(0.100000,-0.100000)"
fill="#000000" stroke="none">
<path d="M1957 4013 c-1 0 -33 -4 -72 -7 -89 -8 -185 -21 -195 -26 -3 -2 -14
-4 -25 -5 -37 -3 -246 -64 -308 -90 -18 -7 -34 -13 -37 -13 -5 1 -136 -68
-168 -87 -70 -42 -129 -90 -221 -175 -23 -21 -81 -89 -111 -129 -14 -18 -35
-44 -47 -58 -12 -14 -25 -34 -28 -44 -4 -11 -10 -19 -14 -19 -5 0 -14 -13 -21
-30 -7 -16 -17 -30 -22 -30 -5 0 -7 -4 -4 -9 4 -5 2 -11 -3 -13 -12 -4 -85
-144 -101 -193 -16 -49 -56 -122 -82 -149 -41 -44 -123 -180 -118 -195 1 -2
-3 -7 -10 -11 -6 -4 -12 -17 -13 -28 -1 -12 -4 -22 -8 -22 -8 0 -22 -63 -24
-108 -2 -30 -15 -60 -15 -32 0 10 -3 10 -15 0 -8 -7 -15 -9 -15 -5 0 4 -6 2
-13 -4 -8 -6 -16 -8 -19 -5 -10 9 -69 -107 -70 -137 -1 -16 -4 -29 -8 -29 -5
0 -11 -12 -15 -27 -3 -16 -21 -59 -40 -98 -47 -100 -66 -143 -70 -163 -2 -9
-8 -37 -15 -62 -19 -78 -14 -449 7 -484 3 -4 7 -20 9 -35 1 -14 6 -37 9 -51 4
-14 9 -37 12 -53 3 -15 8 -27 12 -27 4 0 8 -12 9 -27 1 -15 7 -30 13 -33 5 -4
9 -11 8 -16 -2 -5 5 -26 14 -48 9 -21 17 -41 17 -44 0 -11 95 -197 103 -200 4
-2 7 -12 7 -23 0 -10 5 -19 11 -19 5 0 8 -4 5 -9 -3 -5 1 -14 9 -21 8 -7 15
-17 15 -21 0 -16 67 -108 74 -102 3 4 6 1 6 -6 0 -7 5 -9 10 -6 6 3 10 1 10
-5 0 -11 38 -61 105 -139 64 -74 167 -170 195 -183 17 -7 30 -16 30 -20 0 -5
5 -8 10 -8 6 0 20 -8 31 -18 10 -11 32 -25 47 -33 14 -8 35 -21 45 -29 10 -8
20 -13 24 -12 3 2 9 0 12 -6 10 -15 216 -107 262 -116 8 -2 27 -8 43 -15 16
-6 36 -13 45 -15 9 -2 23 -6 31 -9 15 -6 70 -16 120 -22 14 -2 25 -4 25 -5 0
-1 14 -3 30 -5 17 -1 48 -5 70 -9 22 -3 75 -8 118 -10 42 -3 82 -8 87 -11 6
-3 10 -2 10 3 0 6 14 7 34 2 22 -5 39 -3 45 3 7 7 11 8 11 1 0 -12 29 -12 48
0 6 4 12 3 12 -1 0 -9 77 -10 86 0 3 3 16 2 29 -3 13 -5 25 -6 28 -4 5 5 161
16 245 18 17 0 32 5 32 11 0 5 5 3 10 -5 5 -8 10 -10 10 -5 0 6 19 11 43 13
41 2 82 9 82 12 0 1 11 3 25 4 14 2 37 6 51 9 14 4 43 9 63 13 20 3 60 11 89
19 28 7 55 11 59 9 5 -3 8 0 8 5 0 6 3 10 8 9 15 -4 77 15 84 26 5 7 8 6 8 -4
0 -12 2 -12 9 -2 5 8 20 15 35 15 14 1 26 5 26 8 0 3 6 6 13 6 15 1 166 57
205 76 15 8 37 13 49 12 12 -1 25 5 28 12 2 8 9 11 15 8 5 -3 10 -1 10 4 0 6
6 11 13 11 8 0 24 11 37 25 13 14 25 23 28 20 2 -2 11 3 19 11 8 8 19 12 24 9
5 -4 9 -2 9 3 0 6 20 23 45 39 25 15 45 31 45 36 0 4 6 7 13 7 7 0 24 11 39
25 15 14 31 25 35 25 5 0 42 32 82 70 41 39 72 70 69 70 -3 0 19 25 49 55 29
31 53 58 53 60 0 3 23 35 51 70 28 36 48 65 44 65 -4 0 4 11 18 25 32 32 156
282 162 325 0 3 4 11 8 18 5 6 6 12 3 12 -3 0 -1 11 4 25 9 25 13 42 27 115 7
43 10 320 3 320 -3 0 -6 15 -7 33 -3 31 -10 72 -13 72 -1 0 -3 9 -5 20 -9 54
-34 154 -47 185 -6 14 -14 34 -18 45 -4 11 -21 49 -38 85 -16 36 -31 70 -32
75 -2 6 -8 15 -14 21 -6 6 -36 46 -66 89 -30 43 -78 102 -106 132 -28 29 -49
53 -46 53 2 0 -31 35 -74 77 -44 43 -81 77 -84 76 -3 -1 -15 12 -25 28 -11 16
-24 29 -29 29 -4 0 -30 18 -56 40 -26 22 -53 40 -59 40 -6 0 -11 4 -11 9 0 5
-27 26 -60 47 -33 22 -83 56 -112 78 -29 21 -64 43 -78 50 -14 6 -27 13 -30
17 -10 12 -176 87 -207 94 -29 6 -46 24 -25 26 4 0 14 2 22 4 8 2 29 6 45 9
65 13 75 15 83 20 5 3 19 7 33 10 13 3 51 12 84 21 86 22 108 27 123 28 6 0
12 3 12 7 0 4 18 6 40 5 22 -1 40 2 40 6 0 16 40 3 60 -19 11 -12 20 -24 20
-27 -2 -45 2 -55 18 -55 13 0 14 2 3 9 -7 5 -9 11 -4 14 15 9 3 115 -18 164
-40 94 -139 208 -239 276 -25 17 -47 33 -50 37 -12 14 -201 101 -275 125 -44
15 -87 30 -95 33 -8 3 -18 6 -22 7 -5 2 -9 3 -10 5 -4 2 -24 7 -68 14 -19 4
-48 11 -65 15 -33 10 -75 18 -150 27 -27 3 -66 8 -85 10 -19 3 -60 6 -91 8
-30 1 -60 6 -67 9 -6 4 -13 3 -17 -3 -4 -6 -11 -7 -18 -3 -9 5 -215 12 -220 6z
m-1267 -1059 c0 -8 -27 -34 -36 -34 -20 0 -161 -163 -182 -211 -13 -32 -17
-34 -28 -17 -4 7 -3 8 4 4 7 -4 12 -1 12 8 0 9 0 18 0 21 0 13 45 75 107 148
52 61 77 83 97 85 14 1 26 -1 26 -4z"/>
</g>
</svg>
